<svg xmlns="http://www.w3.org/2000/svg" viewBox="0 0 236.38 262.49"><defs><style>.cls-1{fill:#fff;}.cls-2{fill:#333;}</style></defs><g id="logo-alexa"><path class="cls-1" d="M92.1,206A86.9,86.9,0,0,1,46.31,92.44,87.9,87.9,0,0,1,65.19,64.32,86.4,86.4,0,0,1,126.59,39a84.59,84.59,0,0,1,43.55,11.72,87.52,87.52,0,0,1,31.7,31.76,84.91,84.91,0,0,1,11.72,43.61,86.93,86.93,0,0,1-87.21,87,82.47,82.47,0,0,1-9.23-.48l.73.36q4.61,2.31,7.16,3.65L135.22,222q16.14,8.51,25.26,11.72a51.1,51.1,0,0,0,17,3.22,29.86,29.86,0,0,0,24.05-10.87A69.28,69.28,0,0,0,211,211.6l3.4,1.21q-4.62,17.37-10.75,28.24T189.08,257.2a35.67,35.67,0,0,1-19.37,5.29A46.72,46.72,0,0,1,149,257.33q-10.5-5.17-26.42-17.92l-10.81-8.62A103.44,103.44,0,0,0,97.38,220.4a20.84,20.84,0,0,0-9.9-3,17,17,0,0,0-9.66,3q-4.42,3-9.89,10.14L65,228.36Q78.5,207.23,92.1,206Zm-2.19-5.22A73.48,73.48,0,0,1,72,181.9a82,82,0,0,1-10.68-25.2,129.63,129.63,0,0,1-3.59-31.46q0-25.27,7.72-43.06T89.91,51.75a89.84,89.84,0,0,0-24.72,19A80.41,80.41,0,0,0,49.52,96a85.7,85.7,0,0,0,0,59.88,81.56,81.56,0,0,0,15.67,25.56A92.56,92.56,0,0,0,89.91,200.79Zm-19.8-75.55a130,130,0,0,0,4,33.1,81.47,81.47,0,0,0,11.48,26,52.31,52.31,0,0,0,18,16.46,48,48,0,0,0,23.26,5.7q20.78,0,36.32-16.51,9.48-10.22,14.64-26.79T183,125.12A133.39,133.39,0,0,0,179,91.35a80.29,80.29,0,0,0-11.29-25.63A52,52,0,0,0,150,49.45a47.65,47.65,0,0,0-23.38-5.71,47,47,0,0,0-23.26,5.77A52.55,52.55,0,0,0,85.54,66,82.2,82.2,0,0,0,74.12,92,130.43,130.43,0,0,0,70.11,125.24ZM206,226.78q-12.89,15.42-28.42,15.42-18.59,0-53.69-20.52-15.3-8.87-18.46-10.08a24.57,24.57,0,0,0-9.36-2.19,18,18,0,0,0-7,1.28,35.94,35.94,0,0,0-7.35,4.43,22.52,22.52,0,0,1,7.65-1.82,20.79,20.79,0,0,1,9.17,2.43q4.92,2.43,17.19,10.93,11.53,7.89,17.61,11.66T146,245.61q14.33,7.39,26,7.4a31,31,0,0,0,19.49-6.74Q200.2,239.54,206,226.78Zm-49.44-25.87q44.46-25.64,44.46-74.82a92.71,92.71,0,0,0-4.92-30.19,83.63,83.63,0,0,0-14-25.62A70.9,70.9,0,0,0,161,52.36q26.61,23.33,26.6,72.63A142.07,142.07,0,0,1,185,152.63a100.18,100.18,0,0,1-7.22,23,60.89,60.89,0,0,1-5,8.87,58.45,58.45,0,0,1-6.56,7.83A115.12,115.12,0,0,1,156.59,200.91Z"/><path class="cls-1" d="M102.38,167.34s18.79-22.93,49.15,0L123.79,74.08Z"/></g><g id="interface-icon"><polygon id="arrow-left" class="cls-2" points="147.2 128.72 99.13 100.97 99.13 156.47 147.2 128.72 99.13 100.97 99.13 156.47 147.2 128.72"/></g></svg>