<svg id="Capa_7" data-name="Capa 7" xmlns="http://www.w3.org/2000/svg" viewBox="0 0 215 260"><defs><style>.cls-1{fill:none;stroke:#f4ee19;stroke-miterlimit:10;}.cls-2{fill:#f4ee19;}.cls-3{fill:#0e8fad;}.cls-4{fill:#e23bbb;}.cls-5{fill:#8cc92d;}.cls-6{fill:#fff;}</style></defs><g id="icon"><path class="cls-1" d="M148.32,149,201.85,20.72a1.88,1.88,0,0,0-1.28-2.56h0a3.2,3.2,0,0,0-3.68,1.77L139,145.81a4.52,4.52,0,0,0,2.52,6.12h0A5.36,5.36,0,0,0,148.32,149Z"/><path class="cls-2" d="M106.16,214.09s7.58-20.91,8.93-35.74C116.58,162,130.57,155,139.32,159,152.32,164.94,156.79,205.15,106.16,214.09Z"/><circle class="cls-3" cx="72.98" cy="47.39" r="17.02"/><circle class="cls-4" cx="30.02" cy="112.22" r="17.02"/><circle class="cls-5" cx="73.34" cy="175.39" r="17.02"/></g><path class="cls-6" d="M65,242.7v-8.79h1.81v8.79Z"/><path class="cls-6" d="M74,242.7H68.27v-8.79h1.8v7.21H74Z"/><path class="cls-6" d="M80.71,242.7H75v-8.79h1.81v7.21h3.93Z"/><path class="cls-6" d="M88.82,233.91v4.83a4.91,4.91,0,0,1-.46,2.22A3.19,3.19,0,0,1,87,242.38a4.47,4.47,0,0,1-4.11,0A3.19,3.19,0,0,1,81.61,241a4.91,4.91,0,0,1-.46-2.22v-4.83H83v4.61a4.5,4.5,0,0,0,.23,1.54,2,2,0,0,0,.69.93,1.91,1.91,0,0,0,2.92-.93,4.5,4.5,0,0,0,.23-1.54v-4.61Z"/><path class="cls-6" d="M89.84,241.75l.86-1.38a5.51,5.51,0,0,0,.78.54,2.94,2.94,0,0,0,.75.3,2.71,2.71,0,0,0,.75.1,2.08,2.08,0,0,0,.79-.13,1.07,1.07,0,0,0,.52-.37.91.91,0,0,0-.05-1.17,2.1,2.1,0,0,0-.61-.45c-.25-.12-.52-.25-.82-.36s-.57-.25-.85-.39a4.28,4.28,0,0,1-.8-.49,2.31,2.31,0,0,1-.58-.7,2.22,2.22,0,0,1-.22-1,2.27,2.27,0,0,1,.39-1.33,2.49,2.49,0,0,1,1.07-.87,3.84,3.84,0,0,1,1.56-.3,5.34,5.34,0,0,1,1.28.16,5.94,5.94,0,0,1,1.32.5l-.71,1.46a3.78,3.78,0,0,0-.89-.4,3,3,0,0,0-.9-.15,1.71,1.71,0,0,0-.67.12,1,1,0,0,0-.44.32.78.78,0,0,0-.16.49.82.82,0,0,0,.23.58,2.09,2.09,0,0,0,.59.43l.79.38c.29.12.58.26.88.41a4.3,4.3,0,0,1,.81.52,2.42,2.42,0,0,1,.59.72,2.12,2.12,0,0,1,.22,1,2.25,2.25,0,0,1-.41,1.35,2.67,2.67,0,0,1-1.14.91,4.13,4.13,0,0,1-1.7.33,5.12,5.12,0,0,1-1.71-.29A5.29,5.29,0,0,1,89.84,241.75Z"/><path class="cls-6" d="M101.14,242.7H99.33v-7.21H96.75v-1.58h7v1.58h-2.6Z"/><path class="cls-6" d="M111.89,242.7h-2l-1.84-3.18h-1.68v3.18h-1.8v-8.79h3.56a4.55,4.55,0,0,1,1.82.33,2.57,2.57,0,0,1,1.15,1,2.72,2.72,0,0,1,.4,1.51,2.75,2.75,0,0,1-.42,1.54,2.57,2.57,0,0,1-1.21,1Zm-5.52-4.61H108a1.94,1.94,0,0,0,1.23-.34,1.13,1.13,0,0,0,.43-1,1.16,1.16,0,0,0-.43-1,2,2,0,0,0-1.23-.33h-1.63Z"/><path class="cls-6" d="M114.17,242.7h-1.89l3.5-8.79h1.91l3.49,8.79h-1.89l-.72-1.89h-3.68Zm1.31-3.47H118L116.73,236Z"/><path class="cls-6" d="M125.25,242.7h-1.8v-7.21h-2.59v-1.58h7v1.58h-2.6Z"/><path class="cls-6" d="M128.68,242.7v-8.79h1.8v8.79Z"/><path class="cls-6" d="M136.24,242.88a4.84,4.84,0,0,1-1.85-.35,4.36,4.36,0,0,1-1.47-1,4.25,4.25,0,0,1-1-1.45,5,5,0,0,1,0-3.63,4.35,4.35,0,0,1,2.44-2.42,5,5,0,0,1,1.85-.33,4.78,4.78,0,0,1,1.84.34,4.42,4.42,0,0,1,2.43,2.4,4.77,4.77,0,0,1,.34,1.83,4.67,4.67,0,0,1-.34,1.81,4.37,4.37,0,0,1-1,1.45,4.31,4.31,0,0,1-1.47,1A4.79,4.79,0,0,1,136.24,242.88Zm0-1.58a2.68,2.68,0,0,0,2-.86,3.07,3.07,0,0,0,.58-.95,3.45,3.45,0,0,0,0-2.37,3,3,0,0,0-.58-1,2.74,2.74,0,0,0-3.09-.63,2.63,2.63,0,0,0-.88.63,3,3,0,0,0-.59,1,3.31,3.31,0,0,0-.21,1.19,3.25,3.25,0,0,0,.21,1.18,3,3,0,0,0,.59.95,2.63,2.63,0,0,0,.88.63A2.72,2.72,0,0,0,136.24,241.3Z"/><path class="cls-6" d="M150,242.7h-2.08l-4.11-6v6H142v-8.79h2.07l4.11,6v-6H150Z"/></svg>