<svg xmlns="http://www.w3.org/2000/svg" viewBox="0 0 215 260"><defs><style>.cls-1{fill:#2de23e;}.cls-2{fill:#08990e;}.cls-3{fill:#fff;}</style></defs><g id="Capa_3" data-name="Capa 3"><g id="icon"><path class="cls-1" d="M202.87,114.38c0,53.65-42.7,97.15-95.37,97.15S12.13,168,12.13,114.38s42.7-97.15,95.37-97.15q3.85,0,7.65.3a95,95,0,0,1,72.07,43.53A97.94,97.94,0,0,1,202.87,114.38Z"/><path class="cls-2" d="M187.22,61.06l-.26.17L107.9,114.48l7.2-96.27.05-.68A95,95,0,0,1,187.22,61.06Z"/></g><path class="cls-3" d="M62.34,243.35v-8.79h1.29v8.79Z"/><path class="cls-3" d="M73.08,243.35H71.66l-5-6.79v6.79H65.32v-8.79h1.42l5.05,6.79v-6.79h1.29Z"/><path class="cls-3" d="M74.76,243.35v-8.79h5.37v1.14H76.05v2.63h3.83v1.14H76.05v3.88Z"/><path class="cls-3" d="M86,243.53a5,5,0,0,1-1.83-.34,4.41,4.41,0,0,1-1.46-1,4.26,4.26,0,0,1-1-1.46,4.67,4.67,0,0,1-.34-1.81,4.77,4.77,0,0,1,.34-1.83,4.22,4.22,0,0,1,1-1.45,4.41,4.41,0,0,1,1.46-1,5.24,5.24,0,0,1,3.66,0,4.48,4.48,0,0,1,1.45,1,4.37,4.37,0,0,1,1,1.45,4.77,4.77,0,0,1,.34,1.83,4.67,4.67,0,0,1-.34,1.81,4.41,4.41,0,0,1-1,1.46,4.48,4.48,0,0,1-1.45,1A5,5,0,0,1,86,243.53Zm0-1.14a3.28,3.28,0,0,0,1.3-.26,3,3,0,0,0,1-.72,3.26,3.26,0,0,0,.69-1.09,4,4,0,0,0,0-2.73,3.16,3.16,0,0,0-.69-1.09,3,3,0,0,0-1-.72,3.38,3.38,0,0,0-2.6,0,3.13,3.13,0,0,0-1,.72,3.49,3.49,0,0,0-.69,1.09,4,4,0,0,0,0,2.73,3.49,3.49,0,0,0,.69,1.09,3.13,3.13,0,0,0,1,.72A3.28,3.28,0,0,0,86,242.39Z"/><path class="cls-3" d="M98.42,236.44a3.15,3.15,0,0,0-1.07-.68,3.58,3.58,0,0,0-1.31-.24,3.24,3.24,0,0,0-1.3.25,2.94,2.94,0,0,0-1,.7,3.27,3.27,0,0,0-.67,1.09,3.77,3.77,0,0,0-.24,1.38,3.94,3.94,0,0,0,.24,1.39,3.42,3.42,0,0,0,.66,1.09,3.05,3.05,0,0,0,1,.72,3.27,3.27,0,0,0,1.3.25,3.11,3.11,0,0,0,1.16-.21,2.75,2.75,0,0,0,.94-.58,3.09,3.09,0,0,0,.66-.92,3.88,3.88,0,0,0,.32-1.17h-3v-1h4.14l0,.48a5.19,5.19,0,0,1-.32,1.84,4.23,4.23,0,0,1-.88,1.44,4,4,0,0,1-1.35.93,4.24,4.24,0,0,1-1.73.34,4.61,4.61,0,0,1-1.79-.35,4.43,4.43,0,0,1-1.44-1,4.35,4.35,0,0,1-1-1.45,4.8,4.8,0,0,1-.33-1.8,4.68,4.68,0,0,1,.34-1.82,4.34,4.34,0,0,1,1-1.46,4.43,4.43,0,0,1,1.44-1,4.62,4.62,0,0,1,1.8-.34,4.93,4.93,0,0,1,1.75.31,4.74,4.74,0,0,1,1.49.91Z"/><path class="cls-3" d="M108.46,243.35H107l-2-3.44h-2.14v3.44h-1.29v-8.79H105a4.14,4.14,0,0,1,1.69.32,2.51,2.51,0,0,1,1.08.92,2.65,2.65,0,0,1,.38,1.43,2.43,2.43,0,0,1-1.82,2.48Zm-5.58-4.53h2a2.21,2.21,0,0,0,1.41-.41,1.41,1.41,0,0,0,.51-1.15,1.43,1.43,0,0,0-.5-1.15,2.22,2.22,0,0,0-1.42-.41h-2Z"/><path class="cls-3" d="M110.41,243.35h-1.35l3.57-8.79H114l3.56,8.79h-1.35l-.88-2.21h-4.06Zm1.32-3.35h3.18l-1.59-4Z"/><path class="cls-3" d="M118.65,243.35v-8.79h2.81a4.8,4.8,0,0,1,1.87.34,2.73,2.73,0,0,1,1.2,1,3,3,0,0,1,0,3,2.68,2.68,0,0,1-1.2,1,4.59,4.59,0,0,1-1.87.35h-1.52v3.09Zm1.29-4.23h1.4a2.76,2.76,0,0,0,1.69-.45,1.52,1.52,0,0,0,.6-1.27,1.45,1.45,0,0,0-.6-1.25,2.76,2.76,0,0,0-1.69-.45h-1.4Z"/><path class="cls-3" d="M127.59,243.35H126.3v-8.79h1.29v3.89h4.54v-3.89h1.29v8.79h-1.29v-3.77h-4.54Z"/><path class="cls-3" d="M135.1,243.35v-8.79h1.29v8.79Z"/><path class="cls-3" d="M145.57,242.23a4.25,4.25,0,0,1-1.45,1,4.77,4.77,0,0,1-1.83.35,5,5,0,0,1-1.83-.34,4.48,4.48,0,0,1-1.45-1,4.41,4.41,0,0,1-1-1.46,4.67,4.67,0,0,1-.34-1.81,4.77,4.77,0,0,1,.34-1.83,4.37,4.37,0,0,1,1-1.45,4.48,4.48,0,0,1,1.45-1,5,5,0,0,1,1.83-.33,4.77,4.77,0,0,1,1.83.34,4.33,4.33,0,0,1,1.44.94l-.89.92a3.28,3.28,0,0,0-1.06-.78,3.08,3.08,0,0,0-1.33-.29,3.28,3.28,0,0,0-1.3.26,3.09,3.09,0,0,0-1,.72,3.3,3.3,0,0,0-.68,1.09,3.85,3.85,0,0,0,0,2.73,3.3,3.3,0,0,0,.68,1.09,3.09,3.09,0,0,0,1,.72,3.28,3.28,0,0,0,1.3.26,3.08,3.08,0,0,0,1.33-.29,3,3,0,0,0,1-.78Z"/><path class="cls-3" d="M146.57,242.47l.62-1a4.43,4.43,0,0,0,.77.53,2.86,2.86,0,0,0,.76.3,3,3,0,0,0,.79.1,2.35,2.35,0,0,0,1-.18,1.39,1.39,0,0,0,.64-.49,1.21,1.21,0,0,0,.23-.72,1.11,1.11,0,0,0-.27-.77,2.38,2.38,0,0,0-.69-.53c-.29-.14-.59-.28-.92-.41l-.85-.39a4.55,4.55,0,0,1-.77-.48,2.25,2.25,0,0,1-.56-.67,2.06,2.06,0,0,1-.21-1,2.28,2.28,0,0,1,.37-1.27,2.37,2.37,0,0,1,1-.84,3.46,3.46,0,0,1,1.48-.3,4.68,4.68,0,0,1,1.16.15,5.72,5.72,0,0,1,1.17.44l-.52,1.05a4.14,4.14,0,0,0-.87-.37,3.22,3.22,0,0,0-.89-.14,2.07,2.07,0,0,0-.82.15,1.38,1.38,0,0,0-.56.43,1.11,1.11,0,0,0-.2.65,1.07,1.07,0,0,0,.25.7,2.29,2.29,0,0,0,.66.5c.28.14.56.28.87.41l.89.42a4.4,4.4,0,0,1,.8.52,2.48,2.48,0,0,1,.58.71,2.2,2.2,0,0,1,.22,1,2.28,2.28,0,0,1-.39,1.32,2.63,2.63,0,0,1-1.08.88,3.88,3.88,0,0,1-1.63.32,4.59,4.59,0,0,1-1.57-.27A4.85,4.85,0,0,1,146.57,242.47Z"/></g></svg>