<svg id="Capa_5" data-name="Capa 5" xmlns="http://www.w3.org/2000/svg" xmlns:xlink="http://www.w3.org/1999/xlink" viewBox="0 0 215 260"><defs><style>.cls-1{fill:url(#Degradado_sin_nombre_44);}.cls-2,.cls-3,.cls-4{fill:none;stroke-miterlimit:10;stroke-width:6px;}.cls-2{stroke:url(#Degradado_sin_nombre_9);}.cls-3{stroke:url(#Degradado_sin_nombre_9-2);}.cls-4{stroke:url(#Degradado_sin_nombre_9-3);}.cls-5{fill:#fff;}</style><linearGradient id="Degradado_sin_nombre_44" x1="4.65" y1="101.36" x2="210.35" y2="101.36" gradientUnits="userSpaceOnUse"><stop offset="0" stop-color="#380b86"/><stop offset="0.25" stop-color="#7c1b72"/><stop offset="0.47" stop-color="#ca3853"/><stop offset="0.69" stop-color="#f85b3b"/><stop offset="0.86" stop-color="#fb7b24"/><stop offset="1" stop-color="#fb9913"/></linearGradient><linearGradient id="Degradado_sin_nombre_9" x1="152.61" y1="180.09" x2="164.62" y2="174.48" gradientUnits="userSpaceOnUse"><stop offset="0" stop-color="#380b86"/><stop offset="0.16" stop-color="#7c1b72"/><stop offset="0.36" stop-color="#ca3853"/><stop offset="0.5" stop-color="#f85b3b"/><stop offset="0.65" stop-color="#fb7b24"/><stop offset="1" stop-color="#fb9913"/></linearGradient><linearGradient id="Degradado_sin_nombre_9-2" x1="60.8" y1="180.09" x2="72.82" y2="174.48" xlink:href="#Degradado_sin_nombre_9"/><linearGradient id="Degradado_sin_nombre_9-3" x1="127.86" y1="53.63" x2="205.37" y2="53.63" xlink:href="#Degradado_sin_nombre_9"/></defs><path class="cls-1" d="M104.39,160.72H4.65L74.92,42l44.87,78c.64,1.43,16.16,34.94,49.66,26.24,27.08-7,31.21-33.63,31.77-44.09h-52.4v-9h61.25l.25,4.26c0,.47,2.28,47-38.59,57.64a52.37,52.37,0,0,1-13.11,1.74c-30.45,0-45.48-29.68-47-32.79L74.81,60,20.53,151.67h83.86Z"/><line class="cls-2" x1="158.61" y1="168.03" x2="158.61" y2="186.54"/><line class="cls-3" x1="66.81" y1="168.03" x2="66.81" y2="186.54"/><path class="cls-4" d="M130.23,63.11S144,45.32,167.07,45.32s35.86,17.79,35.86,17.79"/><path class="cls-5" d="M92.17,242.21H86.54v-8.78h1.55v7.43h4.08Z"/><path class="cls-5" d="M97,242.39a4.78,4.78,0,0,1-1.84-.34,4.41,4.41,0,0,1-1.46-1,4.25,4.25,0,0,1-1-1.45,5,5,0,0,1,0-3.64,4.25,4.25,0,0,1,1-1.45,4.41,4.41,0,0,1,1.46-1,5.15,5.15,0,0,1,3.68,0,4.52,4.52,0,0,1,1.46,1,4.37,4.37,0,0,1,1,1.45,5,5,0,0,1,0,3.64,4.37,4.37,0,0,1-1,1.45,4.52,4.52,0,0,1-1.46,1A4.78,4.78,0,0,1,97,242.39ZM97,241a3,3,0,0,0,1.2-.24,2.81,2.81,0,0,0,1-.68,3.13,3.13,0,0,0,.63-1,3.78,3.78,0,0,0,0-2.54,3.13,3.13,0,0,0-.63-1,3,3,0,0,0-1-.68,3.12,3.12,0,0,0-2.4,0,2.85,2.85,0,0,0-1,.68,3.15,3.15,0,0,0-.64,1,3.62,3.62,0,0,0,0,2.54,3.15,3.15,0,0,0,.64,1,2.71,2.71,0,0,0,1,.68A3,3,0,0,0,97,241Z"/><path class="cls-5" d="M109.27,235.47a2.81,2.81,0,0,0-1-.64,3.3,3.3,0,0,0-1.22-.22,3.11,3.11,0,0,0-1.21.23,2.73,2.73,0,0,0-1,.65,3,3,0,0,0-.62,1,3.79,3.79,0,0,0-.21,1.29,3.68,3.68,0,0,0,.22,1.31,2.9,2.9,0,0,0,.62,1,2.78,2.78,0,0,0,.95.67,3.18,3.18,0,0,0,1.21.23,3,3,0,0,0,1.06-.18,2.56,2.56,0,0,0,.84-.51,2.88,2.88,0,0,0,.61-.81,3.54,3.54,0,0,0,.31-1.06H107.1v-1.19h4.14l0,.58a5.09,5.09,0,0,1-.31,1.83,4.12,4.12,0,0,1-.87,1.44,4,4,0,0,1-1.35.93,4.36,4.36,0,0,1-1.72.33,4.45,4.45,0,0,1-1.8-.35,4.36,4.36,0,0,1-2.41-2.41,5,5,0,0,1,0-3.62,4.62,4.62,0,0,1,1-1.45,4.31,4.31,0,0,1,1.44-1,4.69,4.69,0,0,1,1.8-.34,5,5,0,0,1,1.76.32,4.76,4.76,0,0,1,1.5.9Z"/><path class="cls-5" d="M116.77,242.39a4.78,4.78,0,0,1-1.84-.34,4.41,4.41,0,0,1-1.46-1,4.25,4.25,0,0,1-1-1.45,5,5,0,0,1,0-3.64,4.25,4.25,0,0,1,1-1.45,4.41,4.41,0,0,1,1.46-1,5.15,5.15,0,0,1,3.68,0,4.52,4.52,0,0,1,1.46,1,4.37,4.37,0,0,1,1,1.45,5,5,0,0,1,0,3.64,4.37,4.37,0,0,1-1,1.45,4.52,4.52,0,0,1-1.46,1A4.82,4.82,0,0,1,116.77,242.39Zm0-1.36a3,3,0,0,0,1.2-.24,2.9,2.9,0,0,0,1-.68,3.13,3.13,0,0,0,.63-1,3.78,3.78,0,0,0,0-2.54,3.13,3.13,0,0,0-.63-1,3.06,3.06,0,0,0-1-.68,3.12,3.12,0,0,0-2.4,0,2.85,2.85,0,0,0-1,.68,3.15,3.15,0,0,0-.64,1,3.62,3.62,0,0,0,0,2.54,3.15,3.15,0,0,0,.64,1,2.71,2.71,0,0,0,1,.68A3,3,0,0,0,116.77,241Z"/><path class="cls-5" d="M122.17,241.3l.74-1.18a6.21,6.21,0,0,0,.78.52,3.4,3.4,0,0,0,.75.31,2.93,2.93,0,0,0,.78.1,2.14,2.14,0,0,0,.87-.16,1.29,1.29,0,0,0,.58-.43,1,1,0,0,0,.2-.64,1,1,0,0,0-.24-.7,2.45,2.45,0,0,0-.66-.48l-.87-.39-.85-.38a3.82,3.82,0,0,1-.78-.49,2.39,2.39,0,0,1-.57-.69,2.12,2.12,0,0,1-.21-1,2.26,2.26,0,0,1,.38-1.3,2.4,2.4,0,0,1,1-.85,3.63,3.63,0,0,1,1.51-.3,5.3,5.3,0,0,1,1.23.15,5.6,5.6,0,0,1,1.25.47l-.62,1.25a4,4,0,0,0-.88-.38,3.29,3.29,0,0,0-.9-.14,1.88,1.88,0,0,0-.74.13,1.13,1.13,0,0,0-.5.38.91.91,0,0,0-.18.56.93.93,0,0,0,.24.65,2.33,2.33,0,0,0,.62.46c.26.14.54.27.83.4s.59.26.88.41a4.16,4.16,0,0,1,.81.52,2.51,2.51,0,0,1,.59.71,2.25,2.25,0,0,1,.22,1,2.32,2.32,0,0,1-.4,1.33,2.5,2.5,0,0,1-1.11.9,4.11,4.11,0,0,1-1.67.32,5,5,0,0,1-1.64-.27A5.35,5.35,0,0,1,122.17,241.3Z"/></svg>