<svg id="Capa_1" data-name="Capa 1" xmlns="http://www.w3.org/2000/svg" viewBox="0 0 371 378"><defs><style>.cls-1{fill:#fff;}.cls-2{fill:none;}</style></defs><path class="cls-1" d="M253.57,24.08V68.54L217.75,68l.44,38.64h35.38v49.9H218.19V279H158.31V156.54H137.44V104.82h24.5l-.59-27.7s-4.31-52.85,39.52-53S253.57,24.08,253.57,24.08Z"/><path class="cls-1" d="M108,356.13h1.87l8.34,18.72h-2.72L113,369.33h-7.94l-2.33,5.52H100ZM111.93,367l-3-6.74L106.15,367Z"/><path class="cls-1" d="M123,374.82V356.24h6.28a13.18,13.18,0,0,1,6,1.14,8.53,8.53,0,0,1,3.52,3.35,9.31,9.31,0,0,1,1.31,4.82,9.2,9.2,0,0,1-5.93,8.58,9.56,9.56,0,0,1-1.93.55,26.59,26.59,0,0,1-3.36.14Zm6-16.21h-3.33v13.84h3.41a13.78,13.78,0,0,0,3.1-.27,7.7,7.7,0,0,0,1.85-.7,6.36,6.36,0,0,0,1.35-1,6.9,6.9,0,0,0,2-5.05,6.38,6.38,0,0,0-2-4.88,6,6,0,0,0-1.71-1.16,6.85,6.85,0,0,0-1.83-.6A18.15,18.15,0,0,0,129,358.61Z"/><path class="cls-1" d="M156.61,356.24h2.65l-7.86,18.69h-.61l-8-18.69h2.68l5.6,13.07Z"/><path class="cls-1" d="M164,356.24h10.54v2.37h-7.88v5.67h7.62v2.39h-7.62v5.78h8.14v2.37H164Z"/><path class="cls-1" d="M180.47,374.85V356.24h4.66a6.71,6.71,0,0,1,4.48,1.4,4.67,4.67,0,0,1,1.66,3.78,4.65,4.65,0,0,1-3.14,4.58,8.28,8.28,0,0,1,1.75,1.6,34.06,34.06,0,0,1,2.39,3.53c.65,1.06,1.17,1.85,1.56,2.38l1,1.34h-3.17l-.82-1.23a2,2,0,0,0-.15-.23l-.52-.73-.83-1.36-.89-1.45a14.38,14.38,0,0,0-1.51-1.82,5.58,5.58,0,0,0-1.24-1,4.18,4.18,0,0,0-1.86-.3h-.69v8.1Zm3.47-16.35h-.8v5.88h1a7.46,7.46,0,0,0,2.77-.35,2.6,2.6,0,0,0,1.18-1,3.06,3.06,0,0,0,.42-1.6,2.88,2.88,0,0,0-.47-1.59,2.49,2.49,0,0,0-1.31-1A9.27,9.27,0,0,0,183.94,358.5Z"/><path class="cls-1" d="M195.56,356.21H211.1v2.37h-6.48v16.27h-2.68V358.58h-6.38Z"/><path class="cls-1" d="M216.37,356.24H219v18.61h-2.67Z"/><path class="cls-1" d="M230.5,367.05l-2-1.23a9.17,9.17,0,0,1-2.71-2.29,4.31,4.31,0,0,1-.81-2.59,4.59,4.59,0,0,1,1.53-3.57,5.69,5.69,0,0,1,4-1.37,7.49,7.49,0,0,1,4.27,1.31v3a6.15,6.15,0,0,0-4.32-1.93,3.62,3.62,0,0,0-2.15.6,1.83,1.83,0,0,0-.84,1.55,2.38,2.38,0,0,0,.62,1.56,7.45,7.45,0,0,0,2,1.53l2,1.21q3.4,2,3.41,5.18a4.73,4.73,0,0,1-1.5,3.63,5.5,5.5,0,0,1-3.9,1.4,8.18,8.18,0,0,1-5-1.7V370a6.28,6.28,0,0,0,5,2.74,3.15,3.15,0,0,0,2.08-.7,2.18,2.18,0,0,0,.83-1.75C233,369.14,232.14,368.07,230.5,367.05Z"/><path class="cls-1" d="M241.14,356.24h2.67v18.61h-2.67Z"/><path class="cls-1" d="M265.45,356.24H268v18.61h-2.29l-12.44-14.33v14.33h-2.51V356.24h2.16l12.55,14.45Z"/><path class="cls-1" d="M284.74,365.68H291v7.89a17.11,17.11,0,0,1-6.82,1.49,10.14,10.14,0,0,1-7.39-2.7,8.93,8.93,0,0,1-2.76-6.65,9.25,9.25,0,0,1,2.86-6.94,9.91,9.91,0,0,1,7.18-2.77,12.63,12.63,0,0,1,3,.34,23.89,23.89,0,0,1,3.56,1.25v2.71a13.12,13.12,0,0,0-6.6-1.93,7,7,0,0,0-5.14,2.08,7.37,7.37,0,0,0,0,10.28,7.44,7.44,0,0,0,5.38,2,12.49,12.49,0,0,0,3.82-.73l.25-.08v-3.88h-3.58Z"/><rect class="cls-2" x="185.51" width="20" height="20"/></svg>