<svg xmlns="http://www.w3.org/2000/svg" viewBox="0 0 215 260"><defs><style>.cls-1{fill:#fff;}</style></defs><g id="guias"><path class="cls-1" d="M151.84,18.06V52l-27.57.49.55,28.61h27v38.11h-27v93.54H79.09V119.22H63.16V79.73h18.7l-.45-21.16S78.13,18.2,111.6,18.06,151.84,18.06,151.84,18.06Z"/><path class="cls-1" d="M64.29,242.32l.73-1.18a6.21,6.21,0,0,0,.78.52,3.29,3.29,0,0,0,.76.31,2.86,2.86,0,0,0,.77.1,2.16,2.16,0,0,0,.88-.16,1.2,1.2,0,0,0,.57-.43,1,1,0,0,0,.21-.64,1,1,0,0,0-.25-.7,2.39,2.39,0,0,0-.65-.48l-.87-.39-.85-.38a4.2,4.2,0,0,1-.79-.49,2.21,2.21,0,0,1-.56-.69,2.12,2.12,0,0,1-.21-1,2.26,2.26,0,0,1,.37-1.3,2.43,2.43,0,0,1,1-.85,3.6,3.6,0,0,1,1.51-.3,5.3,5.3,0,0,1,1.23.15,5.53,5.53,0,0,1,1.24.47l-.61,1.25a4.11,4.11,0,0,0-.89-.38,2.89,2.89,0,0,0-.89-.14,1.93,1.93,0,0,0-.75.13,1.1,1.1,0,0,0-.49.38.91.91,0,0,0-.18.56.93.93,0,0,0,.24.65,2,2,0,0,0,.62.46c.26.14.53.27.83.4s.58.26.88.41a4.86,4.86,0,0,1,.81.52,2.32,2.32,0,0,1,.58.71,2.12,2.12,0,0,1,.22,1,2.31,2.31,0,0,1-.39,1.33,2.61,2.61,0,0,1-1.11.9,4.15,4.15,0,0,1-1.67.32,5,5,0,0,1-3.11-1.09Z"/><path class="cls-1" d="M76.1,243.41a4.77,4.77,0,0,1-1.83-.34,4.56,4.56,0,0,1-1.47-1,4.37,4.37,0,0,1-1-1.45,5,5,0,0,1,0-3.64,4.37,4.37,0,0,1,1-1.45,4.56,4.56,0,0,1,1.47-1,5.12,5.12,0,0,1,3.67,0,4.41,4.41,0,0,1,1.46,1,4.09,4.09,0,0,1,1,1.45,5,5,0,0,1,0,3.64,4.09,4.09,0,0,1-1,1.45,4.41,4.41,0,0,1-1.46,1A4.78,4.78,0,0,1,76.1,243.41Zm0-1.36a2.92,2.92,0,0,0,1.2-.24,2.85,2.85,0,0,0,1-.68,3.13,3.13,0,0,0,.63-1,3.62,3.62,0,0,0,0-2.54,3.13,3.13,0,0,0-.63-1,2.85,2.85,0,0,0-1-.68,2.92,2.92,0,0,0-1.2-.24,3,3,0,0,0-1.2.24,3,3,0,0,0-1,.68,3.13,3.13,0,0,0-.63,1,3.62,3.62,0,0,0,0,2.54,3.13,3.13,0,0,0,.63,1,3,3,0,0,0,1,.68A3,3,0,0,0,76.1,242.05Z"/><path class="cls-1" d="M89.47,242.12a4.25,4.25,0,0,1-1.45.95,4.77,4.77,0,0,1-1.83.34,4.86,4.86,0,0,1-1.84-.34,4.41,4.41,0,0,1-1.46-1,4.25,4.25,0,0,1-1-1.45,5,5,0,0,1,0-3.64,4.25,4.25,0,0,1,1-1.45,4.41,4.41,0,0,1,1.46-1,4.86,4.86,0,0,1,1.84-.34,4.68,4.68,0,0,1,1.82.34,4.38,4.38,0,0,1,1.45.94l-1.08,1.1a2.84,2.84,0,0,0-2.22-1,2.94,2.94,0,0,0-1.19.24,2.88,2.88,0,0,0-1,.67,3.13,3.13,0,0,0-.63,1,3.55,3.55,0,0,0-.23,1.28,3.46,3.46,0,0,0,.23,1.27,3.13,3.13,0,0,0,.63,1,2.91,2.91,0,0,0,1,.68,2.94,2.94,0,0,0,1.19.24,2.84,2.84,0,0,0,2.22-1Z"/><path class="cls-1" d="M90.7,243.23v-8.78h1.55v8.78Z"/><path class="cls-1" d="M94.83,243.23H93.21l3.54-8.78H98.4l3.53,8.78h-1.62l-.81-2H95.64Zm1.32-3.4H99l-1.43-3.64Z"/><path class="cls-1" d="M108.52,243.23h-5.63v-8.78h1.55v7.43h4.08Z"/><path class="cls-1" d="M121.61,243.23h-1.54v-6.59l-2.45,5.12h-1.25l-2.43-5.09v6.56H112.4v-8.78h2l2.64,5.61,2.63-5.61h2Z"/><path class="cls-1" d="M123.17,243.23v-8.78h5.57v1.35h-4v2.32h3.79v1.35h-3.79v2.41h4.08v1.35Z"/><path class="cls-1" d="M130.3,243.23v-8.78h2.77a6.5,6.5,0,0,1,2.76.53,4,4,0,0,1,1.8,1.52,4.66,4.66,0,0,1,0,4.68,4,4,0,0,1-1.8,1.52,6.5,6.5,0,0,1-2.76.53Zm1.55-1.35h1.28a4.63,4.63,0,0,0,1.92-.36,2.67,2.67,0,0,0,1.21-1,3.45,3.45,0,0,0,0-3.3,2.67,2.67,0,0,0-1.21-1,4.63,4.63,0,0,0-1.92-.36h-1.28Z"/><path class="cls-1" d="M139.48,243.23v-8.78H141v8.78Z"/><path class="cls-1" d="M143.61,243.23H142l3.54-8.78h1.65l3.53,8.78h-1.62l-.81-2h-3.86Zm1.32-3.4h2.84l-1.42-3.64Z"/></g></svg>