<svg id="Capa_6" data-name="Capa 6" xmlns="http://www.w3.org/2000/svg" viewBox="0 0 215 260"><defs><style>.cls-1,.cls-2{fill:none;stroke-miterlimit:10;stroke-width:3px;}.cls-1{stroke:#e8540a;}.cls-2{stroke:#ea6428;}.cls-3{fill:#fff;}</style></defs><path class="cls-1" d="M151.63,64.33H64.51C64.51,39.85,84,20,108.07,20S151.63,39.85,151.63,64.33Z"/><polygon class="cls-2" points="180.97 211.06 34.02 211.06 46.17 63.72 167.62 64.94 180.97 211.06"/><path class="cls-3" d="M51.79,242.66v-8.79h5.67v1.57H53.59v2h3.63V239H53.59v2.06h3.93v1.58Z"/><path class="cls-3" d="M58.89,242.66v-8.79h2.88a6.53,6.53,0,0,1,2.76.54,4.22,4.22,0,0,1,0,7.71,6.53,6.53,0,0,1-2.76.54Zm1.81-1.58h1.13a4.34,4.34,0,0,0,1.79-.33,2.41,2.41,0,0,0,1.12-1,3.2,3.2,0,0,0,0-3.06,2.45,2.45,0,0,0-1.12-.95,4.17,4.17,0,0,0-1.79-.34H60.7Z"/><path class="cls-3" d="M68.1,242.66v-8.79h1.8v8.79Z"/><path class="cls-3" d="M75.13,242.66H73.32v-7.22H70.73v-1.57h7v1.57H75.13Z"/><path class="cls-3" d="M78.55,242.66v-8.79h1.81v8.79Z"/><path class="cls-3" d="M89.78,242.66H87.7l-4.11-6v6h-1.8v-8.79h2.07l4.11,6v-6h1.81Z"/><path class="cls-3" d="M97.56,236.08a2.66,2.66,0,0,0-.93-.6,3.08,3.08,0,0,0-1.14-.21,2.82,2.82,0,0,0-1.11.21,2.42,2.42,0,0,0-.87.6A2.77,2.77,0,0,0,93,237a3.3,3.3,0,0,0-.2,1.21,3.43,3.43,0,0,0,.2,1.22,2.72,2.72,0,0,0,.57,1,2.51,2.51,0,0,0,.89.62,2.78,2.78,0,0,0,1.13.23,2.91,2.91,0,0,0,.95-.16,2.63,2.63,0,0,0,.76-.45,2.57,2.57,0,0,0,.54-.71,3.07,3.07,0,0,0,.29-.93H95.54v-1.38h4.13l0,.68a5.32,5.32,0,0,1-.3,1.83,4.33,4.33,0,0,1-.87,1.44,3.78,3.78,0,0,1-1.34.92,4.36,4.36,0,0,1-1.72.33,4.75,4.75,0,0,1-1.82-.34,4.5,4.5,0,0,1-1.45-1,4.29,4.29,0,0,1-1-1.46,4.89,4.89,0,0,1,0-3.61,4.5,4.5,0,0,1,4.21-2.76,5.07,5.07,0,0,1,1.76.32,4.81,4.81,0,0,1,1.51.9Z"/><path class="cls-3" d="M103.57,242.66v-8.79h3a4.7,4.7,0,0,1,1.92.36,3,3,0,0,1,1.24,4.2,2.75,2.75,0,0,1-1.24,1,4.41,4.41,0,0,1-1.9.37h-1.22v2.83Zm1.8-4.42h1a2.38,2.38,0,0,0,1.42-.36,1.22,1.22,0,0,0,.49-1,1.2,1.2,0,0,0-.49-1,2.38,2.38,0,0,0-1.42-.37h-1Z"/><path class="cls-3" d="M118.75,242.66h-2l-1.84-3.18h-1.68v3.18h-1.8v-8.79H115a4.47,4.47,0,0,1,1.81.33,2.54,2.54,0,0,1,1.16,1,3,3,0,0,1,0,3,2.51,2.51,0,0,1-1.21.95Zm-5.52-4.61h1.62a2,2,0,0,0,1.24-.34,1.3,1.3,0,0,0,0-1.93,2,2,0,0,0-1.24-.34h-1.62Z"/><path class="cls-3" d="M124,242.83a4.84,4.84,0,0,1-1.85-.34,4.38,4.38,0,0,1-2.44-2.41,5,5,0,0,1,0-3.64,4.38,4.38,0,0,1,2.44-2.41,5.18,5.18,0,0,1,3.69,0,4.41,4.41,0,0,1,1.46,1,4.5,4.5,0,0,1,1,1.45,5,5,0,0,1,0,3.64,4.37,4.37,0,0,1-1,1.45,4.56,4.56,0,0,1-1.47,1A4.82,4.82,0,0,1,124,242.83Zm0-1.57a2.63,2.63,0,0,0,1.09-.23,2.7,2.7,0,0,0,.89-.64,3,3,0,0,0,.58-.95,3.22,3.22,0,0,0,.21-1.18,3.25,3.25,0,0,0-.21-1.18,3,3,0,0,0-.58-1,2.7,2.7,0,0,0-.89-.64,2.62,2.62,0,0,0-1.09-.22,2.72,2.72,0,0,0-1.11.22,2.66,2.66,0,0,0-.88.64,2.82,2.82,0,0,0-.59,1,3.25,3.25,0,0,0-.21,1.18,3.31,3.31,0,0,0,.21,1.19,2.82,2.82,0,0,0,.59,1,2.63,2.63,0,0,0,.88.63A2.72,2.72,0,0,0,124,241.26Z"/><path class="cls-3" d="M129.78,242.66v-8.79h2.87a6.47,6.47,0,0,1,2.76.54,4.18,4.18,0,0,1,1.81,1.52,4.22,4.22,0,0,1-1.81,6.19,6.47,6.47,0,0,1-2.76.54Zm1.8-1.58h1.14a4.37,4.37,0,0,0,1.79-.33,2.46,2.46,0,0,0,1.12-1,3.27,3.27,0,0,0,0-3.06,2.5,2.5,0,0,0-1.12-.95,4.2,4.2,0,0,0-1.79-.34h-1.14Z"/><path class="cls-3" d="M146.66,233.87v4.83a5.05,5.05,0,0,1-.46,2.22,3.36,3.36,0,0,1-1.32,1.42,4.58,4.58,0,0,1-4.12,0,3.36,3.36,0,0,1-1.32-1.42,5.05,5.05,0,0,1-.46-2.22v-4.83h1.81v4.61A4.25,4.25,0,0,0,141,240a1.89,1.89,0,0,0,.68.93,1.92,1.92,0,0,0,1.12.32,1.78,1.78,0,0,0,1.8-1.25,4.25,4.25,0,0,0,.23-1.53v-4.61Z"/><path class="cls-3" d="M155.65,241.56a4.5,4.5,0,0,1-1.46.93,5.15,5.15,0,0,1-3.68,0,4.56,4.56,0,0,1-1.47-1,4.35,4.35,0,0,1-1-1.45,4.91,4.91,0,0,1,0-3.64,4.35,4.35,0,0,1,1-1.45,4.56,4.56,0,0,1,1.47-1,5,5,0,0,1,1.84-.34,5,5,0,0,1,1.83.34,4.35,4.35,0,0,1,1.45.95l-1.25,1.26a2.7,2.7,0,0,0-.9-.71,2.76,2.76,0,0,0-2.25,0,2.73,2.73,0,0,0-.87.64,2.79,2.79,0,0,0-.58,1,3.22,3.22,0,0,0-.21,1.18,3.31,3.31,0,0,0,.21,1.19,2.79,2.79,0,0,0,.58,1,2.7,2.7,0,0,0,.87.63,2.66,2.66,0,0,0,1.09.23,2.59,2.59,0,0,0,1.15-.26,2.86,2.86,0,0,0,.9-.72Z"/><path class="cls-3" d="M160.62,242.66h-1.81v-7.22h-2.59v-1.57h7v1.57h-2.59Z"/></svg>