<svg id="Capa_6" data-name="Capa 6" xmlns="http://www.w3.org/2000/svg" xmlns:xlink="http://www.w3.org/1999/xlink" viewBox="0 0 251.61 300"><defs><style>.cls-1{fill:none;}.cls-2{fill:#55cbc7;}.cls-3{fill:#3fb9bc;}.cls-4{clip-path:url(#clip-path);}.cls-5{fill:#fff;}.cls-6{fill:#fefefe;}.cls-7{fill:#fdfdfd;}.cls-8{fill:#fcfcfc;}.cls-9{fill:#fbfbfb;}.cls-10{fill:#fafafa;}.cls-11{fill:#f9f9f9;}.cls-12{fill:#f8f8f8;}.cls-13{fill:#f7f7f7;}.cls-14{fill:#f6f6f6;}.cls-15{fill:#f5f5f5;}.cls-16{fill:#f4f4f4;}.cls-17{fill:#f3f3f3;}.cls-18{fill:#f2f2f2;}.cls-19{fill:#f1f1f1;}.cls-20{fill:#f0f0f0;}.cls-21{fill:#efefef;}.cls-22{fill:#eee;}.cls-23{fill:#ededed;}.cls-24{fill:#ececec;}.cls-25{fill:#ebebeb;}.cls-26{fill:#eaeaea;}.cls-27{fill:#e9e9e9;}.cls-28{fill:#e8e8e8;}.cls-29{fill:#e7e7e7;}.cls-30{fill:#e6e6e6;}.cls-31{fill:#e5e5e5;}.cls-32{fill:#e4e4e4;}.cls-33{fill:#e3e3e3;}.cls-34{fill:#e2e2e2;}.cls-35{fill:#e1e1e1;}.cls-36{fill:#e0e0e0;}.cls-37{fill:#dfdfdf;}.cls-38{fill:#dedede;}.cls-39{fill:#ddd;}.cls-40{fill:#dcdcdc;}.cls-41{fill:#dbdbdb;}.cls-42{fill:#dadada;}.cls-43{fill:#d9d9d9;}.cls-44{fill:#d8d8d8;}.cls-45{fill:#d7d7d7;}.cls-46{fill:#d6d6d6;}.cls-47{fill:#d5d5d5;}.cls-48{fill:#d4d4d4;}.cls-49{fill:#d3d3d3;}.cls-50{fill:#d2d2d2;}.cls-51{fill:#d1d1d1;}.cls-52{fill:#d0d0d0;}.cls-53{fill:#cfcfcf;}.cls-54{fill:#cececd;}.cls-55{fill:#cdcdcc;}.cls-56{fill:#cccccb;}.cls-57{fill:#cbcbca;}.cls-58{fill:#cacac9;}.cls-59{fill:#c9c9c8;}.cls-60{fill:#c8c8c7;}.cls-61{fill:#c7c7c6;}.cls-62{fill:#c6c6c5;}.cls-63{fill:#c5c5c4;}.cls-64{fill:#c4c4c3;}.cls-65{fill:#c3c3c2;}.cls-66{fill:#c2c2c1;}.cls-67{fill:#c1c1c0;}.cls-68{fill:#c0c0bf;}.cls-69{fill:#bfbfbe;}.cls-70{fill:#bebebd;}.cls-71{fill:#bdbdbc;}.cls-72{fill:#bcbcbb;}.cls-73{fill:#bbbbba;}.cls-74{fill:#babab9;}.cls-75{fill:#b9b9b8;}.cls-76{fill:#b8b8b7;}.cls-77{fill:#b7b7b6;}.cls-78{fill:#b6b6b5;}.cls-79{fill:#b5b5b4;}.cls-80{fill:#b4b4b3;}.cls-81{fill:#b3b3b2;}.cls-82{fill:#b2b2b1;}.cls-83{fill:#b1b1b0;}.cls-84{fill:#b0b0af;}.cls-85{fill:#afafae;}.cls-86{fill:#aeaead;}.cls-87{fill:#adadac;}.cls-88{fill:#acacab;}.cls-89{fill:#ababaa;}.cls-90{fill:#aaaaa9;}.cls-91{fill:#a9a9a8;}.cls-92{fill:#a8a8a7;}.cls-93{fill:#a7a7a6;}.cls-94{fill:#a6a6a5;}.cls-95{fill:#a5a5a4;}.cls-96{fill:#a4a4a3;}.cls-97{fill:#a3a3a2;}.cls-98{fill:#a2a2a1;}.cls-99{fill:#a1a1a0;}.cls-100{fill:#a0a09f;}.cls-101{fill:#9f9f9e;}.cls-102{fill:#9e9e9d;}.cls-103{fill:#a09d9d;}</style><clipPath id="clip-path"><rect class="cls-1" x="175.25" y="48.95" width="70" height="158" rx="18.43"/></clipPath></defs><g id="nuevo"><rect class="cls-2" x="169.36" y="42.95" width="82" height="170" rx="24.2"/><path class="cls-3" d="M227.16,213.2H193.55a24.47,24.47,0,0,1-24.44-24.45V67.15A24.47,24.47,0,0,1,193.55,42.7h33.61a24.48,24.48,0,0,1,24.45,24.45v121.6A24.48,24.48,0,0,1,227.16,213.2Zm-33.61-170a24,24,0,0,0-23.94,24v121.6a24,24,0,0,0,23.94,23.95h33.61a24,24,0,0,0,24-23.95V67.15a24,24,0,0,0-24-24Z"/></g><g id="nuevo-2" data-name="nuevo"><rect x="173.36" y="47.06" width="74" height="162" rx="18.93"/><path d="M228.42,209.19H192.29a19.08,19.08,0,0,1-19.06-19.06V66a19.08,19.08,0,0,1,19.06-19.06h36.13A19.08,19.08,0,0,1,247.48,66V190.13A19.08,19.08,0,0,1,228.42,209.19Zm-36.13-162A18.83,18.83,0,0,0,173.48,66V190.13a18.83,18.83,0,0,0,18.81,18.81h36.13a18.83,18.83,0,0,0,18.81-18.81V66a18.83,18.83,0,0,0-18.81-18.81Z"/></g><g id="nuevo-3" data-name="nuevo"><g class="cls-4"><rect class="cls-5" x="175.25" y="48.95" width="0.71" height="158"/><rect class="cls-6" x="175.97" y="48.95" width="0.71" height="158"/><rect class="cls-7" x="176.68" y="48.95" width="0.71" height="158"/><rect class="cls-8" x="177.39" y="48.95" width="0.71" height="158"/><rect class="cls-9" x="178.11" y="48.95" width="0.71" height="158"/><rect class="cls-10" x="178.82" y="48.95" width="0.71" height="158"/><rect class="cls-11" x="179.54" y="48.95" width="0.71" height="158"/><rect class="cls-12" x="180.25" y="48.95" width="0.71" height="158"/><rect class="cls-13" x="180.97" y="48.95" width="0.71" height="158"/><rect class="cls-14" x="181.68" y="48.95" width="0.71" height="158"/><rect class="cls-15" x="182.39" y="48.95" width="0.71" height="158"/><rect class="cls-16" x="183.11" y="48.95" width="0.71" height="158"/><rect class="cls-17" x="183.82" y="48.95" width="0.71" height="158"/><rect class="cls-18" x="184.54" y="48.95" width="0.71" height="158"/><rect class="cls-19" x="185.25" y="48.95" width="0.71" height="158"/><rect class="cls-20" x="185.97" y="48.95" width="0.71" height="158"/><rect class="cls-21" x="186.68" y="48.95" width="0.71" height="158"/><rect class="cls-22" x="187.39" y="48.95" width="0.71" height="158"/><rect class="cls-23" x="188.11" y="48.95" width="0.71" height="158"/><rect class="cls-24" x="188.82" y="48.95" width="0.71" height="158"/><rect class="cls-25" x="189.54" y="48.95" width="0.71" height="158"/><rect class="cls-26" x="190.25" y="48.95" width="0.71" height="158"/><rect class="cls-27" x="190.97" y="48.95" width="0.71" height="158"/><rect class="cls-28" x="191.68" y="48.95" width="0.71" height="158"/><rect class="cls-29" x="192.39" y="48.95" width="0.71" height="158"/><rect class="cls-30" x="193.11" y="48.95" width="0.71" height="158"/><rect class="cls-31" x="193.82" y="48.95" width="0.71" height="158"/><rect class="cls-32" x="194.54" y="48.95" width="0.71" height="158"/><rect class="cls-33" x="195.25" y="48.95" width="0.71" height="158"/><rect class="cls-34" x="195.97" y="48.95" width="0.71" height="158"/><rect class="cls-35" x="196.68" y="48.95" width="0.71" height="158"/><rect class="cls-36" x="197.39" y="48.95" width="0.71" height="158"/><rect class="cls-37" x="198.11" y="48.95" width="0.71" height="158"/><rect class="cls-38" x="198.82" y="48.95" width="0.71" height="158"/><rect class="cls-39" x="199.54" y="48.95" width="0.71" height="158"/><rect class="cls-40" x="200.25" y="48.95" width="0.71" height="158"/><rect class="cls-41" x="200.97" y="48.95" width="0.71" height="158"/><rect class="cls-42" x="201.68" y="48.95" width="0.71" height="158"/><rect class="cls-43" x="202.39" y="48.95" width="0.71" height="158"/><rect class="cls-44" x="203.11" y="48.95" width="0.71" height="158"/><rect class="cls-45" x="203.82" y="48.95" width="0.71" height="158"/><rect class="cls-46" x="204.54" y="48.95" width="0.71" height="158"/><rect class="cls-47" x="205.25" y="48.95" width="0.71" height="158"/><rect class="cls-48" x="205.97" y="48.95" width="0.71" height="158"/><rect class="cls-49" x="206.68" y="48.95" width="0.71" height="158"/><rect class="cls-50" x="207.39" y="48.95" width="0.71" height="158"/><rect class="cls-51" x="208.11" y="48.95" width="0.71" height="158"/><rect class="cls-52" x="208.82" y="48.95" width="0.71" height="158"/><rect class="cls-53" x="209.54" y="48.95" width="0.71" height="158"/><rect class="cls-54" x="210.25" y="48.95" width="0.71" height="158"/><rect class="cls-55" x="210.97" y="48.95" width="0.71" height="158"/><rect class="cls-56" x="211.68" y="48.95" width="0.71" height="158"/><rect class="cls-57" x="212.39" y="48.95" width="0.71" height="158"/><rect class="cls-58" x="213.11" y="48.95" width="0.71" height="158"/><rect class="cls-59" x="213.82" y="48.95" width="0.71" height="158"/><rect class="cls-60" x="214.54" y="48.95" width="0.71" height="158"/><rect class="cls-61" x="215.25" y="48.95" width="0.71" height="158"/><rect class="cls-62" x="215.97" y="48.95" width="0.71" height="158"/><rect class="cls-63" x="216.68" y="48.95" width="0.71" height="158"/><rect class="cls-64" x="217.39" y="48.95" width="0.71" height="158"/><rect class="cls-65" x="218.11" y="48.95" width="0.71" height="158"/><rect class="cls-66" x="218.82" y="48.95" width="0.71" height="158"/><rect class="cls-67" x="219.54" y="48.95" width="0.71" height="158"/><rect class="cls-68" x="220.25" y="48.95" width="0.71" height="158"/><rect class="cls-69" x="220.97" y="48.95" width="0.71" height="158"/><rect class="cls-70" x="221.68" y="48.95" width="0.71" height="158"/><rect class="cls-71" x="222.39" y="48.95" width="0.71" height="158"/><rect class="cls-72" x="223.11" y="48.95" width="0.71" height="158"/><rect class="cls-73" x="223.82" y="48.95" width="0.71" height="158"/><rect class="cls-74" x="224.54" y="48.95" width="0.71" height="158"/><rect class="cls-75" x="225.25" y="48.95" width="0.71" height="158"/><rect class="cls-76" x="225.97" y="48.95" width="0.71" height="158"/><rect class="cls-77" x="226.68" y="48.95" width="0.71" height="158"/><rect class="cls-78" x="227.39" y="48.95" width="0.71" height="158"/><rect class="cls-79" x="228.11" y="48.95" width="0.71" height="158"/><rect class="cls-80" x="228.82" y="48.95" width="0.71" height="158"/><rect class="cls-81" x="229.54" y="48.95" width="0.71" height="158"/><rect class="cls-82" x="230.25" y="48.95" width="0.71" height="158"/><rect class="cls-83" x="230.97" y="48.95" width="0.71" height="158"/><rect class="cls-84" x="231.68" y="48.95" width="0.71" height="158"/><rect class="cls-85" x="232.39" y="48.95" width="0.71" height="158"/><rect class="cls-86" x="233.11" y="48.95" width="0.71" height="158"/><rect class="cls-87" x="233.82" y="48.95" width="0.71" height="158"/><rect class="cls-88" x="234.54" y="48.95" width="0.71" height="158"/><rect class="cls-89" x="235.25" y="48.95" width="0.71" height="158"/><rect class="cls-90" x="235.97" y="48.95" width="0.71" height="158"/><rect class="cls-91" x="236.68" y="48.95" width="0.71" height="158"/><rect class="cls-92" x="237.39" y="48.95" width="0.71" height="158"/><rect class="cls-93" x="238.11" y="48.95" width="0.71" height="158"/><rect class="cls-94" x="238.82" y="48.95" width="0.71" height="158"/><rect class="cls-95" x="239.54" y="48.95" width="0.71" height="158"/><rect class="cls-96" x="240.25" y="48.95" width="0.71" height="158"/><rect class="cls-97" x="240.97" y="48.95" width="0.71" height="158"/><rect class="cls-98" x="241.68" y="48.95" width="0.71" height="158"/><rect class="cls-99" x="242.39" y="48.95" width="0.71" height="158"/><rect class="cls-100" x="243.11" y="48.95" width="0.71" height="158"/><rect class="cls-101" x="243.82" y="48.95" width="0.71" height="158"/><rect class="cls-102" x="244.54" y="48.95" width="0.71" height="158"/></g><path class="cls-103" d="M226.82,207.2H193.68A18.7,18.7,0,0,1,175,188.52V67.38A18.7,18.7,0,0,1,193.68,48.7h33.14A18.7,18.7,0,0,1,245.5,67.38V188.52A18.7,18.7,0,0,1,226.82,207.2Zm-33.14-158A18.2,18.2,0,0,0,175.5,67.38V188.52a18.21,18.21,0,0,0,18.18,18.18h33.14A18.2,18.2,0,0,0,245,188.52V67.38A18.19,18.19,0,0,0,226.82,49.2Z"/></g><path d="M191.24,48.92s-.81,6.62,5.76,6.71h26.25s4-.18,3.89-6.71Z"/><path d="M197,55.88A5.87,5.87,0,0,1,192.43,54,7.22,7.22,0,0,1,191,48.89l0-.22h36.37v.25c.08,6.69-4.09,7-4.13,7Zm-5.53-6.71a6.72,6.72,0,0,0,1.33,4.55,5.47,5.47,0,0,0,4.2,1.66h26.25c.14,0,3.62-.26,3.64-6.21Z"/><path d="M197,55.75a5.62,5.62,0,0,1-4.66-2,7.23,7.23,0,0,1-1.21-4.84v-.11h36.11v.13c.08,6.57-3.95,6.83-4,6.83ZM191.34,49a7.06,7.06,0,0,0,1.17,4.53A5.4,5.4,0,0,0,197,55.5h26.25c.15,0,3.81-.25,3.78-6.46Z"/><path d="M197,56h0a5.86,5.86,0,0,1-4.84-2.11,7.49,7.49,0,0,1-1.27-5l0-.33H227.5v.37c.09,6.81-4.19,7.09-4.23,7.09Zm-5.43-6.71a6.74,6.74,0,0,0,1.14,4.13A5.18,5.18,0,0,0,197,55.25h26.25c.13,0,3.46-.23,3.53-6Z"/><rect x="197.94" y="198.52" width="25.69" height="1.11" rx="0.51"/><path d="M223.12,199.76H198.45a.64.64,0,0,1-.63-.64V199a.63.63,0,0,1,.63-.63h24.67a.63.63,0,0,1,.63.63v.09A.64.64,0,0,1,223.12,199.76Zm-24.67-1.11a.38.38,0,0,0-.38.38v.09a.38.38,0,0,0,.38.39h24.67a.38.38,0,0,0,.38-.39V199a.38.38,0,0,0-.38-.38Z"/><path d="M223.12,200H198.45a.88.88,0,0,1-.88-.89V199a.87.87,0,0,1,.88-.88h24.67a.87.87,0,0,1,.88.88v.09A.88.88,0,0,1,223.12,200Zm-24.67-1.11a.13.13,0,0,0-.13.13v.09a.13.13,0,0,0,.13.14h24.67a.13.13,0,0,0,.13-.14V199a.13.13,0,0,0-.13-.13Z"/><path d="M223.12,200.13H198.45a1,1,0,0,1-1-1V199a1,1,0,0,1,1-1h24.67a1,1,0,0,1,1,1v.09A1,1,0,0,1,223.12,200.13Zm-24.67-1.86a.76.76,0,0,0-.76.76v.09a.76.76,0,0,0,.76.76h24.67a.76.76,0,0,0,.76-.76V199a.76.76,0,0,0-.76-.76Zm24.67,1.11H198.45a.26.26,0,0,1-.26-.26V199a.26.26,0,0,1,.26-.26h24.67a.26.26,0,0,1,.26.26v.09A.26.26,0,0,1,223.12,199.38ZM198.45,199h0v.09h24.68V199Z"/><path class="cls-5" d="M183.14,243.09h-1.66l-1.78-5.82-1.8,5.82h-1.65l-2.86-8.79h1.89l1.79,5.84,1.8-5.84h1.65l1.79,5.83,1.78-5.83H186Z"/><path class="cls-5" d="M186.87,243.09V234.3h5.67v1.57h-3.87v2h3.63v1.58h-3.63v2.06h3.93v1.58Z"/><path class="cls-5" d="M194,243.09V234.3h3.25a3.53,3.53,0,0,1,2.2.6,2,2,0,0,1,.79,1.68,2.18,2.18,0,0,1-.32,1.17,1.93,1.93,0,0,1-.83.77,2.26,2.26,0,0,1,1.17.77,2.08,2.08,0,0,1,.41,1.32,2.36,2.36,0,0,1-.36,1.31,2.5,2.5,0,0,1-1,.86,3.81,3.81,0,0,1-1.56.31Zm1.81-5.11h1.34a1.49,1.49,0,0,0,1-.29,1,1,0,0,0,.35-.78.94.94,0,0,0-.35-.76,1.62,1.62,0,0,0-1-.28h-1.31Zm0,3.53h1.45a2.34,2.34,0,0,0,.84-.14,1.22,1.22,0,0,0,.54-.39,1,1,0,0,0,.19-.59,1,1,0,0,0-.17-.58,1.12,1.12,0,0,0-.5-.37,2.27,2.27,0,0,0-.78-.13h-1.57Z"/><path class="cls-5" d="M204.45,243.09V234.3h2.88a6.53,6.53,0,0,1,2.76.54,4.09,4.09,0,0,1,1.8,1.52,4.23,4.23,0,0,1-1.8,6.19,6.53,6.53,0,0,1-2.76.54Zm1.81-1.58h1.13a4.34,4.34,0,0,0,1.79-.33,2.36,2.36,0,0,0,1.12-1,3.2,3.2,0,0,0,0-3.06,2.4,2.4,0,0,0-1.12-.95,4.17,4.17,0,0,0-1.79-.34h-1.13Z"/><path class="cls-5" d="M213.66,243.09V234.3h5.67v1.57h-3.87v2h3.63v1.58h-3.63v2.06h3.93v1.58Z"/><path class="cls-5" d="M220.29,242.14l.86-1.38a5.51,5.51,0,0,0,.78.54,2.94,2.94,0,0,0,.75.3,2.66,2.66,0,0,0,.75.1,2.08,2.08,0,0,0,.79-.13,1.14,1.14,0,0,0,.52-.37.92.92,0,0,0,.19-.56.88.88,0,0,0-.24-.62,2.08,2.08,0,0,0-.61-.44c-.25-.13-.52-.25-.82-.37s-.57-.24-.86-.38a4.54,4.54,0,0,1-.79-.49,2.35,2.35,0,0,1-.58-.71,2.17,2.17,0,0,1-.22-1,2.3,2.3,0,0,1,.39-1.34,2.54,2.54,0,0,1,1.07-.86,3.64,3.64,0,0,1,1.55-.31,5.3,5.3,0,0,1,1.28.17,6.3,6.3,0,0,1,1.33.49l-.71,1.46a4.23,4.23,0,0,0-.89-.4,3.36,3.36,0,0,0-.91-.14,1.69,1.69,0,0,0-.66.12.92.92,0,0,0-.44.32.76.76,0,0,0-.16.49.79.79,0,0,0,.23.58,2.31,2.31,0,0,0,.59.43c.25.12.51.25.79.37s.58.26.88.41a4.44,4.44,0,0,1,.8.53,2.31,2.31,0,0,1,.6.72,2.08,2.08,0,0,1,.22,1,2.26,2.26,0,0,1-.41,1.36,2.67,2.67,0,0,1-1.14.91,4.31,4.31,0,0,1-1.71.32,5.09,5.09,0,0,1-1.7-.28A5.54,5.54,0,0,1,220.29,242.14Z"/><path class="cls-5" d="M227.91,243.09V234.3h1.8v8.79Z"/><path class="cls-5" d="M237.49,236.51a2.53,2.53,0,0,0-.92-.6,3.12,3.12,0,0,0-1.14-.21,2.9,2.9,0,0,0-1.12.21,2.47,2.47,0,0,0-.86.6,2.79,2.79,0,0,0-.57.94,3.53,3.53,0,0,0-.2,1.21,3.43,3.43,0,0,0,.21,1.22,2.72,2.72,0,0,0,.57,1,2.42,2.42,0,0,0,.89.62,2.75,2.75,0,0,0,1.13.23,2.91,2.91,0,0,0,1-.16,2.46,2.46,0,0,0,.75-.45,2.6,2.6,0,0,0,.55-.71,3.07,3.07,0,0,0,.29-.93h-2.55v-1.38h4.14l0,.68a5.09,5.09,0,0,1-.31,1.83,4,4,0,0,1-.87,1.44,3.74,3.74,0,0,1-1.33.92,4.36,4.36,0,0,1-1.72.33,4.72,4.72,0,0,1-1.82-.34,4.66,4.66,0,0,1-1.46-1,4.44,4.44,0,0,1-1-1.46,4.62,4.62,0,0,1-.34-1.8,4.7,4.7,0,0,1,.34-1.81,4.59,4.59,0,0,1,1-1.45,4.48,4.48,0,0,1,1.45-1,4.62,4.62,0,0,1,1.8-.35,5,5,0,0,1,1.75.32,4.75,4.75,0,0,1,1.52.9Z"/><path class="cls-5" d="M248.77,243.09H246.7l-4.11-6v6h-1.8V234.3h2.07l4.11,6v-6h1.8Z"/></svg>