<svg id="web-2" xmlns="http://www.w3.org/2000/svg" viewBox="0 0 215 260"><defs><style>.cls-1{fill:#fff;}.cls-2{fill:#3fb9bc;}.cls-3{fill:#e5e5e5;}</style></defs><path class="cls-1" d="M79.21,242.43H77.8l-1.92-6.21L74,242.43H72.54l-2.86-8.79h1.63l1.93,6.24,1.93-6.24h1.41l1.93,6.22,1.93-6.22h1.62Z"/><path class="cls-1" d="M83.05,242.43v-8.79h5.58V235h-4v2.31h3.79v1.36H84.6v2.4h4.09v1.36Z"/><path class="cls-1" d="M90.19,242.43v-8.79H93.4a3.42,3.42,0,0,1,2.12.59,2,2,0,0,1,.77,1.65,2.22,2.22,0,0,1-.33,1.21,2.05,2.05,0,0,1-.88.77,2.21,2.21,0,0,1,1.2.76,2.12,2.12,0,0,1,.43,1.35,2.27,2.27,0,0,1-1.38,2.15,3.57,3.57,0,0,1-1.55.31Zm1.54-5.05h1.58a1.63,1.63,0,0,0,1.06-.32,1.1,1.1,0,0,0,.39-.89,1.06,1.06,0,0,0-.4-.86,1.67,1.67,0,0,0-1.08-.31H91.73Zm0,3.69H93.4a2.56,2.56,0,0,0,.92-.16,1.53,1.53,0,0,0,.6-.45,1.17,1.17,0,0,0,.21-.69,1.14,1.14,0,0,0-.2-.66,1.28,1.28,0,0,0-.56-.42,2.26,2.26,0,0,0-.87-.15H91.73Z"/><path class="cls-1" d="M100.7,242.43v-8.79h2.76a6.71,6.71,0,0,1,2.77.53,4.09,4.09,0,0,1,1.8,1.52,4.66,4.66,0,0,1,0,4.68,4,4,0,0,1-1.8,1.52,6.55,6.55,0,0,1-2.77.54Zm1.54-1.36h1.28a4.65,4.65,0,0,0,1.93-.36,2.61,2.61,0,0,0,1.21-1,3.43,3.43,0,0,0,0-3.29,2.63,2.63,0,0,0-1.21-1,4.82,4.82,0,0,0-1.93-.35h-1.28Z"/><path class="cls-1" d="M109.88,242.43v-8.79h5.57V235h-4v2.31h3.79v1.36h-3.79v2.4h4.08v1.36Z"/><path class="cls-1" d="M116.54,241.51l.73-1.18a6.21,6.21,0,0,0,.78.52,3.29,3.29,0,0,0,.76.31,2.86,2.86,0,0,0,.77.1,2.35,2.35,0,0,0,.88-.15,1.38,1.38,0,0,0,.58-.44,1.06,1.06,0,0,0,.2-.64,1,1,0,0,0-.25-.69,1.93,1.93,0,0,0-.65-.48c-.27-.14-.56-.27-.87-.4s-.56-.24-.85-.38a3.82,3.82,0,0,1-.78-.49,2.11,2.11,0,0,1-.57-.69,2.09,2.09,0,0,1-.21-1,2.28,2.28,0,0,1,.37-1.3,2.51,2.51,0,0,1,1-.85,3.6,3.6,0,0,1,1.51-.3,5.3,5.3,0,0,1,1.23.15,6.06,6.06,0,0,1,1.24.47l-.61,1.25A3.91,3.91,0,0,0,121,235a3.22,3.22,0,0,0-.89-.14,2.08,2.08,0,0,0-.74.13,1.15,1.15,0,0,0-.5.38.91.91,0,0,0-.18.56.93.93,0,0,0,.24.65,2,2,0,0,0,.62.46c.26.14.53.27.83.4l.88.41a4.86,4.86,0,0,1,.81.52,2.25,2.25,0,0,1,.58.72,2.05,2.05,0,0,1,.22,1,2.34,2.34,0,0,1-.39,1.34,2.66,2.66,0,0,1-1.11.89,4,4,0,0,1-1.67.32,5,5,0,0,1-1.64-.27A5.07,5.07,0,0,1,116.54,241.51Z"/><path class="cls-1" d="M124.09,242.43v-8.79h1.54v8.79Z"/><path class="cls-1" d="M133.64,235.68a2.82,2.82,0,0,0-1-.64,3.53,3.53,0,0,0-1.23-.22,3.18,3.18,0,0,0-1.21.23,2.69,2.69,0,0,0-.94.65,3.06,3.06,0,0,0-.62,1,3.79,3.79,0,0,0-.21,1.29,3.64,3.64,0,0,0,.22,1.31,2.9,2.9,0,0,0,.62,1,2.69,2.69,0,0,0,.95.67,3.26,3.26,0,0,0,2.27.05,2.4,2.4,0,0,0,.84-.51,2.67,2.67,0,0,0,.6-.81,3.27,3.27,0,0,0,.31-1.06h-2.77v-1.19h4.14l0,.58a5.09,5.09,0,0,1-.31,1.83,4,4,0,0,1-.87,1.44,3.84,3.84,0,0,1-1.35.93,4.36,4.36,0,0,1-1.72.33,4.7,4.7,0,0,1-1.81-.34,4.31,4.31,0,0,1-1.44-1,4.22,4.22,0,0,1-1-1.45,4.86,4.86,0,0,1,0-3.62,4.39,4.39,0,0,1,2.39-2.42,4.84,4.84,0,0,1,1.8-.34,5,5,0,0,1,1.76.32,4.61,4.61,0,0,1,1.5.91Z"/><path class="cls-1" d="M144.75,242.43H143l-4.58-6.4v6.4h-1.55v-8.79h1.75l4.58,6.4v-6.4h1.54Z"/><rect class="cls-2" x="60.59" y="18" width="93.81" height="193.91" rx="26.48"/><rect x="63.87" y="22.33" width="87.26" height="185.51" rx="24.59"/><rect class="cls-3" x="65.97" y="24.65" width="83.07" height="180.65" rx="23.68"/><path d="M87.43,22.33l40.15.05v3a5.06,5.06,0,0,1-5.06,5.07h-30a5.06,5.06,0,0,1-5.06-5.1Z"/></svg>